<!DOCTYPE svg PUBLIC "-//W3C//DTD SVG 1.1//EN" "http://www.w3.org/Graphics/SVG/1.1/DTD/svg11.dtd">

<!-- Uploaded to: SVG Repo, www.svgrepo.com, Transformed by: SVG Repo Mixer Tools -->
<svg fill="#ffffff" width="800px" height="800px" viewBox="0 0 50 50" version="1.2" baseProfile="tiny" xmlns="http://www.w3.org/2000/svg" overflow="inherit" stroke="#ffffff">

<g id="SVGRepo_bgCarrier" stroke-width="0"/>

<g id="SVGRepo_tracerCarrier" stroke-linecap="round" stroke-linejoin="round"/>

<g id="SVGRepo_iconCarrier">

<path d="M18 47c0 1.233.768 2 2 2 1.235 0 2-.767 2-2v-19h2v19c0 1.231.767 2 2 2s2-.767 2-2v-32h1v11.814c0 2.395 3.006 2.395 3 0v-12.153c0-2.646-1.906-4.661-5-4.661h-8c-2.82 0-5 1.719-5 4.587v12.413c0 2 3 2 3 0v-12h1v32z"/>

<circle cx="22.875" cy="4.625" r="4.125"/>

</g>

</svg>